<svg id="lock-24px" xmlns="http://www.w3.org/2000/svg" width="69.917" height="69.917" viewBox="0 0 69.917 69.917">
  <g id="Group_46" data-name="Group 46">
    <path id="Path_185" data-name="Path 185" d="M0,0H69.917V69.917H0Z" fill="none"/>
    <path id="Path_186" data-name="Path 186" d="M0,0H69.917V69.917H0Z" fill="none" opacity="0.87"/>
  </g>
  <path id="Path_368" data-name="Path 368" d="M43.658,20.829H40.825V15.163a14.163,14.163,0,1,0-28.327,0v5.665H9.665A5.682,5.682,0,0,0,4,26.494V54.821a5.682,5.682,0,0,0,5.665,5.665H43.658a5.682,5.682,0,0,0,5.665-5.665V26.494A5.682,5.682,0,0,0,43.658,20.829ZM18.163,15.163a8.5,8.5,0,0,1,17,0v5.665h-17ZM43.658,54.821H9.665V26.494H43.658Zm-17-8.5A5.665,5.665,0,1,0,21,40.658,5.682,5.682,0,0,0,26.661,46.323Z" transform="translate(8.653 3.913)" fill="#b53b3b"/>
</svg>
