<svg id="Group_200" data-name="Group 200" xmlns="http://www.w3.org/2000/svg" width="66" height="66" viewBox="0 0 66 66">
  <rect id="Rectangle_55" data-name="Rectangle 55" width="66" height="66" fill="none"/>
  <g id="world-financial" transform="translate(6.999 6.999)">
    <path id="Path_313" data-name="Path 313" d="M79.414,60.452a23.485,23.485,0,0,1-9.5,18.886L61.659,82.21l-1.611-.676L34.941,71a23.342,23.342,0,0,1-2.1-6.227l5.4-14.665L53.371,38.4l.947-.733,5.249-.441a23.273,23.273,0,0,1,6.888,2.208L79.333,59.478l.074.654.006.22c0,.032,0,.066,0,.1Z" transform="translate(-29.569 -33.508)" fill="#7ac2ed"/>
    <path id="Path_314" data-name="Path 314" d="M256.064,60.452a23.789,23.789,0,0,1-9.145,18.886l-7.954,2.871-1.552-.676a21.982,21.982,0,0,0,14.958-21.081c0-12.182-9.5-22.057-21.217-22.057h-.171l.912-.733,5.055-.441a21.831,21.831,0,0,1,6.634,2.208l12.4,20.049.071.654.006.22C256.063,60.384,256.064,60.418,256.064,60.452Z" transform="translate(-206.219 -33.508)" fill="#68a6dc"/>
    <path id="Path_315" data-name="Path 315" d="M55.142,34.789a25.163,25.163,0,0,0-2.3,1.415c-6.3,4.4-2.256,7.275-3.883,10.375-2.03,3.867-9.89,1.425-11.81,2.925-2.562,2,0,10.2-7.739,11.782a22.633,22.633,0,0,1,25.735-26.5Z" transform="translate(-26.13 -31.076)" fill="#d1e16f"/>
    <g id="Group_197" data-name="Group 197" transform="translate(0.01)">
      <path id="Path_316" data-name="Path 316" d="M4.122,497H.844a.748.748,0,1,0,0,1.5H4.122a.748.748,0,1,0,0-1.5Z" transform="translate(-0.096 -445.696)" fill="#d0edf5"/>
      <path id="Path_317" data-name="Path 317" d="M75.627,497h-6.77a.748.748,0,1,0,0,1.5h6.77a.748.748,0,1,0,0-1.5Z" transform="translate(-61.323 -445.696)" fill="#d0edf5"/>
      <path id="Path_318" data-name="Path 318" d="M20.847,466.5h6.272a.748.748,0,1,0,0-1.5H20.847a.748.748,0,1,0,0,1.5Z" transform="translate(-18.103 -416.888)" fill="#d0edf5"/>
      <path id="Path_319" data-name="Path 319" d="M351.706,497h-6.272a.748.748,0,1,0,0,1.5h6.272a.748.748,0,1,0,0-1.5Z" transform="translate(-308.942 -445.696)" fill="#d0edf5"/>
      <path id="Path_320" data-name="Path 320" d="M414.143,465h-9.265a.748.748,0,1,0,0,1.5h9.265a.748.748,0,1,0,0-1.5Z" transform="translate(-362.101 -416.887)" fill="#d0edf5"/>
      <g id="Group_196" data-name="Group 196" transform="translate(37.738)">
        <path id="Path_321" data-name="Path 321" d="M365.9.748A.748.748,0,0,0,365.148,0H361.87a.748.748,0,1,0,0,1.5h3.278A.748.748,0,0,0,365.9.748Z" transform="translate(-361.122)" fill="#d0edf5"/>
        <path id="Path_322" data-name="Path 322" d="M436.654,0h-6.77a.748.748,0,1,0,0,1.5h6.77a.748.748,0,1,0,0-1.5Z" transform="translate(-422.35)" fill="#d0edf5"/>
        <path id="Path_323" data-name="Path 323" d="M398.148,32h-6.272a.748.748,0,1,0,0,1.5h6.272a.748.748,0,1,0,0-1.5Z" transform="translate(-388.134 -28.808)" fill="#d0edf5"/>
      </g>
    </g>
    <path id="Path_324" data-name="Path 324" d="M222.181,256.743c-.712,1.63-5.859,1.258-7.117,0s-1.644-6.435,0-7.115C217.389,248.664,223.188,254.437,222.181,256.743Z" transform="translate(-191.766 -223.625)" fill="#d1e16f"/>
    <path id="Path_325" data-name="Path 325" d="M86.756,316.822A22.628,22.628,0,0,1,53.07,308.8c8.91,0,3.4-5.989,7.534-5.989,5.52,0,4.808,8.96,7.823,10.517,2.979,1.539,5.2-1.684,9.439-1.684,3.217,0,3.252,2.8,5.446,4.285A5.927,5.927,0,0,0,86.756,316.822Z" transform="translate(-47.775 -270.882)" fill="#d1e16f"/>
    <path id="Path_326" data-name="Path 326" d="M313.887,78.626c-.057-1.8-1.724-1.026-3.723-1.055a4.864,4.864,0,0,1-4.43-2.7c-3.1-5.24-10.518-1.351-10.518-7.822,0-3.6,4.7-.649,5.91-5.719a12.22,12.22,0,0,0,.282-2.824A22.607,22.607,0,0,1,313.887,78.626Z" transform="translate(-264.043 -52.666)" fill="#e6f8fc"/>
    <path id="Path_327" data-name="Path 327" d="M122.745,35.92a21.124,21.124,0,0,0-12.185,3.845,22.521,22.521,0,0,1,14.48-5.243,22.768,22.768,0,0,1,3.5.269,25.167,25.167,0,0,0-2.3,1.415A21.326,21.326,0,0,0,122.745,35.92Z" transform="translate(-98.957 -31.078)" fill="#9ccc4b"/>
    <path id="Path_328" data-name="Path 328" d="M135.165,434.3a5.927,5.927,0,0,0,3.444.892,22.62,22.62,0,0,1-27.939-.787,21.229,21.229,0,0,0,24.5-.1Z" transform="translate(-98.808 -389.249)" fill="#9ccc4b"/>
    <path id="Path_329" data-name="Path 329" d="M367.218,78.626c-.057-1.8-1.724-1.026-3.723-1.055a21.192,21.192,0,0,0-9.039-16.244,12.222,12.222,0,0,0,.282-2.825A22.607,22.607,0,0,1,367.218,78.626Z" transform="translate(-317.374 -52.666)" fill="#d0edf5"/>
    <g id="Group_198" data-name="Group 198" transform="translate(0 0)">
      <path id="Path_330" data-name="Path 330" d="M19.222,7.883a2.5,2.5,0,0,1-2.5,2.5H3.413A3.413,3.413,0,1,1,5.5,4.272,5.194,5.194,0,0,1,15.8,5.193c0,.122,0,.243-.012.363a2.506,2.506,0,0,1,3.43,2.327Z" transform="translate(0 0)" fill="#e6f8fc"/>
      <path id="Path_331" data-name="Path 331" d="M19.222,17.156a2.5,2.5,0,0,1-2.5,2.5H3.413A3.413,3.413,0,0,1,0,16.246a2.155,2.155,0,0,0,2.095,1.781H9.5A5.042,5.042,0,0,0,13.714,10.3,5.188,5.188,0,0,1,15.8,14.466c0,.122,0,.243-.012.363a2.506,2.506,0,0,1,3.43,2.327Z" transform="translate(0 -9.273)" fill="#d0edf5"/>
    </g>
    <g id="Group_199" data-name="Group 199" transform="translate(38.106 32.156)">
      <path id="Path_332" data-name="Path 332" d="M379.414,315.984A1.914,1.914,0,0,1,377.5,317.9H367.329a2.609,2.609,0,1,1,1.594-4.674,3.97,3.97,0,0,1,7.878.7c0,.093,0,.186-.009.278a1.915,1.915,0,0,1,2.622,1.779Z" transform="translate(-364.72 -309.958)" fill="#e6f8fc"/>
      <path id="Path_333" data-name="Path 333" d="M379.414,323.072a1.914,1.914,0,0,1-1.914,1.914H367.329a2.609,2.609,0,0,1-2.609-2.609,1.647,1.647,0,0,0,1.6,1.361h5.659a3.854,3.854,0,0,0,3.223-5.906,3.966,3.966,0,0,1,1.6,3.184c0,.093,0,.186-.009.278a1.915,1.915,0,0,1,2.622,1.779Z" transform="translate(-364.72 -317.046)" fill="#d0edf5"/>
    </g>
  </g>
</svg>
